<svg width="24" height="26" viewBox="0 0 24 26" fill="none" xmlns="http://www.w3.org/2000/svg">
<path d="M16.0189 19.5068C18.4038 19.2244 20.747 18.6616 23 17.83C21.092 15.7164 20.0377 12.9692 20.0419 10.1218V9.1618C20.0419 7.12494 19.2328 5.1715 17.7925 3.73122C16.3522 2.29094 14.3988 1.4818 12.3619 1.4818C10.3251 1.4818 8.37162 2.29094 6.93135 3.73122C5.49107 5.1715 4.68192 7.12494 4.68192 9.1618V10.1218C4.68579 12.9693 3.63103 15.7166 1.72256 17.83C3.9408 18.6492 6.27936 19.2188 8.70496 19.5068M16.0189 19.5068C13.5894 19.7949 11.1344 19.7949 8.70496 19.5068M16.0189 19.5068C16.2033 20.0826 16.2492 20.6938 16.1528 21.2907C16.0563 21.8876 15.8203 22.4533 15.4638 22.9417C15.1074 23.4302 14.6407 23.8275 14.1017 24.1015C13.5627 24.3754 12.9666 24.5182 12.3619 24.5182C11.7573 24.5182 11.1612 24.3754 10.6222 24.1015C10.0831 23.8275 9.61642 23.4302 9.26 22.9417C8.90358 22.4533 8.66754 21.8876 8.57109 21.2907C8.47464 20.6938 8.52051 20.0826 8.70496 19.5068" stroke="#7E7E7E" stroke-width="1.92" stroke-linecap="round" stroke-linejoin="round"/>
</svg>
