<svg width="22" height="20" viewBox="0 0 22 20" fill="none" xmlns="http://www.w3.org/2000/svg">
<path d="M19.25 6.31099C20.134 6.59499 20.75 7.43899 20.75 8.40799V12.694C20.75 13.83 19.903 14.794 18.77 14.887C18.43 14.914 18.09 14.939 17.75 14.959V18.05L14.75 15.05C13.396 15.05 12.056 14.995 10.73 14.887C10.4413 14.8637 10.1605 14.7813 9.905 14.645M19.25 6.31099C19.0955 6.26125 18.9358 6.22938 18.774 6.21599C16.0959 5.99367 13.4041 5.99367 10.726 6.21599C9.595 6.30999 8.75 7.27299 8.75 8.40799V12.694C8.75 13.531 9.21 14.274 9.905 14.645M19.25 6.31099V4.43699C19.25 2.81599 18.098 1.41099 16.49 1.20199C14.4208 0.933781 12.3365 0.799501 10.25 0.799989C8.135 0.799989 6.052 0.936989 4.01 1.20199C2.402 1.41099 1.25 2.81599 1.25 4.43699V10.663C1.25 12.284 2.402 13.689 4.01 13.898C4.587 13.973 5.167 14.038 5.75 14.092V18.8L9.905 14.645" stroke="#697077" stroke-width="1.5" stroke-linecap="round" stroke-linejoin="round"/>
</svg>
