<svg width="10" height="7" viewBox="0 0 10 7" fill="none" xmlns="http://www.w3.org/2000/svg">
<path d="M4.21392 6.55751C4.12114 6.5577 4.02924 6.53956 3.94349 6.50415C3.85775 6.46873 3.77983 6.41673 3.71423 6.35113L0.71612 3.35231C0.648572 3.28716 0.594675 3.20921 0.557575 3.12301C0.520474 3.03681 0.500912 2.94408 0.500031 2.85024C0.49915 2.7564 0.516967 2.66332 0.552442 2.57644C0.587918 2.48955 0.640341 2.4106 0.706654 2.3442C0.772967 2.27779 0.851841 2.22526 0.938674 2.18966C1.02551 2.15406 1.11856 2.13611 1.2124 2.13686C1.30625 2.13761 1.399 2.15704 1.48526 2.19402C1.57151 2.231 1.64954 2.28478 1.71478 2.35224L4.21321 4.85066L8.71179 0.353497C8.84431 0.220879 9.02409 0.146337 9.21158 0.146271C9.39906 0.146205 9.57889 0.220619 9.71151 0.353144C9.84413 0.485668 9.91867 0.665448 9.91874 0.852932C9.9188 1.04042 9.84439 1.22025 9.71187 1.35287L4.7136 6.35113C4.648 6.41673 4.57009 6.46873 4.48434 6.50415C4.39859 6.53956 4.30669 6.5577 4.21392 6.55751Z" fill="#FB37A3"/>
</svg>
