<svg width="15" height="16" viewBox="0 0 15 16" fill="none" xmlns="http://www.w3.org/2000/svg">
<path d="M7.06768 13.6349C8.56726 13.6349 10.0054 13.0392 11.0658 11.9789C12.1261 10.9185 12.7218 9.48036 12.7218 7.98078C12.7218 6.48121 12.1261 5.04306 11.0658 3.9827C10.0054 2.92234 8.56726 2.32664 7.06768 2.32664C5.56811 2.32664 4.12996 2.92234 3.0696 3.9827C2.00924 5.04306 1.41354 6.48121 1.41354 7.98078C1.41354 9.48036 2.00924 10.9185 3.0696 11.9789C4.12996 13.0392 5.56811 13.6349 7.06768 13.6349ZM7.06768 15.0485C3.1642 15.0485 0 11.8843 0 7.98078C0 4.0773 3.1642 0.913101 7.06768 0.913101C10.9712 0.913101 14.1354 4.0773 14.1354 7.98078C14.1354 11.8843 10.9712 15.0485 7.06768 15.0485Z" fill="#697077"/>
</svg>
