<svg width="20" height="20" viewBox="0 0 20 20" fill="none" xmlns="http://www.w3.org/2000/svg">
<path d="M9.92809 11.0275L13.9286 7.02694C14.0032 6.94975 14.0924 6.88818 14.191 6.84583C14.2896 6.80347 14.3956 6.78118 14.5029 6.78024C14.6102 6.77931 14.7167 6.79976 14.816 6.8404C14.9153 6.88103 15.0055 6.94104 15.0814 7.01693C15.1573 7.09281 15.2173 7.18304 15.258 7.28237C15.2986 7.38169 15.319 7.48811 15.3181 7.59542C15.3172 7.70274 15.2949 7.80879 15.2525 7.90739C15.2102 8.00599 15.1486 8.09517 15.0714 8.16972L10.4995 12.7417C10.3479 12.8932 10.1424 12.9783 9.92809 12.9783C9.71379 12.9783 9.50826 12.8932 9.3567 12.7417L4.78477 8.16972C4.70758 8.09517 4.64601 8.00599 4.60365 7.90739C4.5613 7.80879 4.539 7.70274 4.53807 7.59542C4.53714 7.48811 4.55759 7.38169 4.59822 7.28237C4.63886 7.18304 4.69887 7.09281 4.77475 7.01693C4.85064 6.94104 4.94087 6.88103 5.0402 6.8404C5.13952 6.79976 5.24594 6.77931 5.35325 6.78024C5.46056 6.78118 5.56661 6.80347 5.66522 6.84583C5.76382 6.88818 5.853 6.94975 5.92755 7.02694L9.92809 11.0275Z" fill="#697077"/>
</svg>
