<svg width="16" height="5" viewBox="0 0 16 5" fill="none" xmlns="http://www.w3.org/2000/svg">
<path d="M2.40584 3.2997C2.61792 3.2997 2.82131 3.21545 2.97128 3.06549C3.12124 2.91552 3.20549 2.71213 3.20549 2.50004C3.20549 2.28796 3.12124 2.08457 2.97128 1.9346C2.82131 1.78464 2.61792 1.70039 2.40584 1.70039C2.19375 1.70039 1.99036 1.78464 1.84039 1.9346C1.69043 2.08457 1.60618 2.28796 1.60618 2.50004C1.60618 2.71213 1.69043 2.91552 1.84039 3.06549C1.99036 3.21545 2.19375 3.2997 2.40584 3.2997ZM2.40584 4.89901C1.76959 4.89901 1.1594 4.64627 0.709508 4.19637C0.259614 3.74648 0.00686646 3.13629 0.00686646 2.50004C0.00686646 1.8638 0.259614 1.25361 0.709508 0.803716C1.1594 0.353822 1.76959 0.101074 2.40584 0.101074C3.04208 0.101074 3.65227 0.353822 4.10216 0.803716C4.55206 1.25361 4.80481 1.8638 4.80481 2.50004C4.80481 3.13629 4.55206 3.74648 4.10216 4.19637C3.65227 4.64627 3.04208 4.89901 2.40584 4.89901ZM13.601 4.89901C12.9648 4.89901 12.3546 4.64627 11.9047 4.19637C11.4548 3.74648 11.2021 3.13629 11.2021 2.50004C11.2021 1.8638 11.4548 1.25361 11.9047 0.803716C12.3546 0.353822 12.9648 0.101074 13.601 0.101074C14.2373 0.101074 14.8475 0.353822 15.2974 0.803716C15.7472 1.25361 16 1.8638 16 2.50004C16 3.13629 15.7472 3.74648 15.2974 4.19637C14.8475 4.64627 14.2373 4.89901 13.601 4.89901ZM13.601 3.2997C13.8131 3.2997 14.0165 3.21545 14.1665 3.06549C14.3164 2.91552 14.4007 2.71213 14.4007 2.50004C14.4007 2.28796 14.3164 2.08457 14.1665 1.9346C14.0165 1.78464 13.8131 1.70039 13.601 1.70039C13.3889 1.70039 13.1855 1.78464 13.0356 1.9346C12.8856 2.08457 12.8014 2.28796 12.8014 2.50004C12.8014 2.71213 12.8856 2.91552 13.0356 3.06549C13.1855 3.21545 13.3889 3.2997 13.601 3.2997ZM8.00343 4.89901C7.36718 4.89901 6.757 4.64627 6.3071 4.19637C5.85721 3.74648 5.60446 3.13629 5.60446 2.50004C5.60446 1.8638 5.85721 1.25361 6.3071 0.803716C6.757 0.353822 7.36718 0.101074 8.00343 0.101074C8.63968 0.101074 9.24986 0.353822 9.69976 0.803716C10.1497 1.25361 10.4024 1.8638 10.4024 2.50004C10.4024 3.13629 10.1497 3.74648 9.69976 4.19637C9.24986 4.64627 8.63968 4.89901 8.00343 4.89901ZM8.00343 3.2997C8.21551 3.2997 8.41891 3.21545 8.56887 3.06549C8.71884 2.91552 8.80309 2.71213 8.80309 2.50004C8.80309 2.28796 8.71884 2.08457 8.56887 1.9346C8.41891 1.78464 8.21551 1.70039 8.00343 1.70039C7.79135 1.70039 7.58795 1.78464 7.43799 1.9346C7.28802 2.08457 7.20377 2.28796 7.20377 2.50004C7.20377 2.71213 7.28802 2.91552 7.43799 3.06549C7.58795 3.21545 7.79135 3.2997 8.00343 3.2997Z" fill="#697077"/>
</svg>
