<svg width="92" height="16" viewBox="0 0 92 16" fill="none" xmlns="http://www.w3.org/2000/svg">
<mask id="path-1-outside-1_61_587" maskUnits="userSpaceOnUse" x="-0.263733" y="0" width="92" height="16" fill="black">
<rect fill="white" x="-0.263733" width="92" height="16"/>
<path d="M17.2363 14H0.736267V12.5H8.23627V8H2.23627V6.5H5.23627V2H2.23627V0.5H15.7363V2H12.7363V6.5H15.7363V8H9.73627V12.5H17.2363V14ZM6.73627 6.5H11.2363V5V3.5V2H6.73627V3.5V6.5ZM45.7363 6.5H42.7363V15.5H41.2363V0.5H42.7363V5H45.7363V6.5ZM30.7363 5H23.2363V3.5H30.7363V2H23.2363V0.5H32.2363V11H30.7363V5ZM65.2363 14H48.7363V12.5H56.2363V8H50.2363V6.5H53.2363V2H50.2363V0.5H63.7363V2H60.7363V6.5H63.7363V8H57.7363V12.5H65.2363V14ZM54.7363 6.5H59.2363V5V3.5V2H54.7363V3.5V6.5ZM89.2363 0.5H90.7363V15.5H89.2363V0.5ZM72.7363 0.5H81.7363V11H72.7363V0.5ZM74.2363 9.5H80.2363V8V6.5V5V3.5V2H74.2363V3.5V5V6.5V9.5Z"/>
</mask>
<path d="M17.2363 14H0.736267V12.5H8.23627V8H2.23627V6.5H5.23627V2H2.23627V0.5H15.7363V2H12.7363V6.5H15.7363V8H9.73627V12.5H17.2363V14ZM6.73627 6.5H11.2363V5V3.5V2H6.73627V3.5V6.5ZM45.7363 6.5H42.7363V15.5H41.2363V0.5H42.7363V5H45.7363V6.5ZM30.7363 5H23.2363V3.5H30.7363V2H23.2363V0.5H32.2363V11H30.7363V5ZM65.2363 14H48.7363V12.5H56.2363V8H50.2363V6.5H53.2363V2H50.2363V0.5H63.7363V2H60.7363V6.5H63.7363V8H57.7363V12.5H65.2363V14ZM54.7363 6.5H59.2363V5V3.5V2H54.7363V3.5V6.5ZM89.2363 0.5H90.7363V15.5H89.2363V0.5ZM72.7363 0.5H81.7363V11H72.7363V0.5ZM74.2363 9.5H80.2363V8V6.5V5V3.5V2H74.2363V3.5V5V6.5V9.5Z" fill="url(#paint0_linear_61_587)"/>
<path d="M17.2363 14V14.5H17.7363V14H17.2363ZM0.736267 14H0.236267V14.5H0.736267V14ZM0.736267 12.5V12H0.236267V12.5H0.736267ZM8.23627 12.5V13H8.73627V12.5H8.23627ZM8.23627 8H8.73627V7.5H8.23627V8ZM2.23627 8H1.73627V8.5H2.23627V8ZM2.23627 6.5V6H1.73627V6.5H2.23627ZM5.23627 6.5V7H5.73627V6.5H5.23627ZM5.23627 2H5.73627V1.5H5.23627V2ZM2.23627 2H1.73627V2.5H2.23627V2ZM2.23627 0.5V0H1.73627V0.5H2.23627ZM15.7363 0.5H16.2363V0H15.7363V0.5ZM15.7363 2V2.5H16.2363V2H15.7363ZM12.7363 2V1.5H12.2363V2H12.7363ZM12.7363 6.5H12.2363V7H12.7363V6.5ZM15.7363 6.5H16.2363V6H15.7363V6.5ZM15.7363 8V8.5H16.2363V8H15.7363ZM9.73627 8V7.5H9.23627V8H9.73627ZM9.73627 12.5H9.23627V13H9.73627V12.5ZM17.2363 12.5H17.7363V12H17.2363V12.5ZM6.73627 6.5H6.23627V7H6.73627V6.5ZM11.2363 6.5V7H11.7363V6.5H11.2363ZM11.2363 2H11.7363V1.5H11.2363V2ZM6.73627 2V1.5H6.23627V2H6.73627ZM17.2363 13.5H0.736267V14.5H17.2363V13.5ZM1.23627 14V12.5H0.236267V14H1.23627ZM0.736267 13H8.23627V12H0.736267V13ZM8.73627 12.5V8H7.73627V12.5H8.73627ZM8.23627 7.5H2.23627V8.5H8.23627V7.5ZM2.73627 8V6.5H1.73627V8H2.73627ZM2.23627 7H5.23627V6H2.23627V7ZM5.73627 6.5V2H4.73627V6.5H5.73627ZM5.23627 1.5H2.23627V2.5H5.23627V1.5ZM2.73627 2V0.5H1.73627V2H2.73627ZM2.23627 1H15.7363V0H2.23627V1ZM15.2363 0.5V2H16.2363V0.5H15.2363ZM15.7363 1.5H12.7363V2.5H15.7363V1.5ZM12.2363 2V6.5H13.2363V2H12.2363ZM12.7363 7H15.7363V6H12.7363V7ZM15.2363 6.5V8H16.2363V6.5H15.2363ZM15.7363 7.5H9.73627V8.5H15.7363V7.5ZM9.23627 8V12.5H10.2363V8H9.23627ZM9.73627 13H17.2363V12H9.73627V13ZM16.7363 12.5V14H17.7363V12.5H16.7363ZM6.73627 7H11.2363V6H6.73627V7ZM11.7363 6.5V5H10.7363V6.5H11.7363ZM11.7363 5V3.5H10.7363V5H11.7363ZM11.7363 3.5V2H10.7363V3.5H11.7363ZM11.2363 1.5H6.73627V2.5H11.2363V1.5ZM6.23627 2V3.5H7.23627V2H6.23627ZM6.23627 3.5V6.5H7.23627V3.5H6.23627ZM45.7363 6.5V7H46.2363V6.5H45.7363ZM42.7363 6.5V6H42.2363V6.5H42.7363ZM42.7363 15.5V16H43.2363V15.5H42.7363ZM41.2363 15.5H40.7363V16H41.2363V15.5ZM41.2363 0.5V0H40.7363V0.5H41.2363ZM42.7363 0.5H43.2363V0H42.7363V0.5ZM42.7363 5H42.2363V5.5H42.7363V5ZM45.7363 5H46.2363V4.5H45.7363V5ZM30.7363 5H31.2363V4.5H30.7363V5ZM23.2363 5H22.7363V5.5H23.2363V5ZM23.2363 3.5V3H22.7363V3.5H23.2363ZM30.7363 3.5V4H31.2363V3.5H30.7363ZM30.7363 2H31.2363V1.5H30.7363V2ZM23.2363 2H22.7363V2.5H23.2363V2ZM23.2363 0.5V0H22.7363V0.5H23.2363ZM32.2363 0.5H32.7363V0H32.2363V0.5ZM32.2363 11V11.5H32.7363V11H32.2363ZM30.7363 11H30.2363V11.5H30.7363V11ZM45.7363 6H42.7363V7H45.7363V6ZM42.2363 6.5V15.5H43.2363V6.5H42.2363ZM42.7363 15H41.2363V16H42.7363V15ZM41.7363 15.5V0.5H40.7363V15.5H41.7363ZM41.2363 1H42.7363V0H41.2363V1ZM42.2363 0.5V5H43.2363V0.5H42.2363ZM42.7363 5.5H45.7363V4.5H42.7363V5.5ZM45.2363 5V6.5H46.2363V5H45.2363ZM30.7363 4.5H23.2363V5.5H30.7363V4.5ZM23.7363 5V3.5H22.7363V5H23.7363ZM23.2363 4H30.7363V3H23.2363V4ZM31.2363 3.5V2H30.2363V3.5H31.2363ZM30.7363 1.5H23.2363V2.5H30.7363V1.5ZM23.7363 2V0.5H22.7363V2H23.7363ZM23.2363 1H32.2363V0H23.2363V1ZM31.7363 0.5V11H32.7363V0.5H31.7363ZM32.2363 10.5H30.7363V11.5H32.2363V10.5ZM31.2363 11V5H30.2363V11H31.2363ZM65.2363 14V14.5H65.7363V14H65.2363ZM48.7363 14H48.2363V14.5H48.7363V14ZM48.7363 12.5V12H48.2363V12.5H48.7363ZM56.2363 12.5V13H56.7363V12.5H56.2363ZM56.2363 8H56.7363V7.5H56.2363V8ZM50.2363 8H49.7363V8.5H50.2363V8ZM50.2363 6.5V6H49.7363V6.5H50.2363ZM53.2363 6.5V7H53.7363V6.5H53.2363ZM53.2363 2H53.7363V1.5H53.2363V2ZM50.2363 2H49.7363V2.5H50.2363V2ZM50.2363 0.5V0H49.7363V0.5H50.2363ZM63.7363 0.5H64.2363V0H63.7363V0.5ZM63.7363 2V2.5H64.2363V2H63.7363ZM60.7363 2V1.5H60.2363V2H60.7363ZM60.7363 6.5H60.2363V7H60.7363V6.5ZM63.7363 6.5H64.2363V6H63.7363V6.5ZM63.7363 8V8.5H64.2363V8H63.7363ZM57.7363 8V7.5H57.2363V8H57.7363ZM57.7363 12.5H57.2363V13H57.7363V12.5ZM65.2363 12.5H65.7363V12H65.2363V12.5ZM54.7363 6.5H54.2363V7H54.7363V6.5ZM59.2363 6.5V7H59.7363V6.5H59.2363ZM59.2363 2H59.7363V1.5H59.2363V2ZM54.7363 2V1.5H54.2363V2H54.7363ZM65.2363 13.5H48.7363V14.5H65.2363V13.5ZM49.2363 14V12.5H48.2363V14H49.2363ZM48.7363 13H56.2363V12H48.7363V13ZM56.7363 12.5V8H55.7363V12.5H56.7363ZM56.2363 7.5H50.2363V8.5H56.2363V7.5ZM50.7363 8V6.5H49.7363V8H50.7363ZM50.2363 7H53.2363V6H50.2363V7ZM53.7363 6.5V2H52.7363V6.5H53.7363ZM53.2363 1.5H50.2363V2.5H53.2363V1.5ZM50.7363 2V0.5H49.7363V2H50.7363ZM50.2363 1H63.7363V0H50.2363V1ZM63.2363 0.5V2H64.2363V0.5H63.2363ZM63.7363 1.5H60.7363V2.5H63.7363V1.5ZM60.2363 2V6.5H61.2363V2H60.2363ZM60.7363 7H63.7363V6H60.7363V7ZM63.2363 6.5V8H64.2363V6.5H63.2363ZM63.7363 7.5H57.7363V8.5H63.7363V7.5ZM57.2363 8V12.5H58.2363V8H57.2363ZM57.7363 13H65.2363V12H57.7363V13ZM64.7363 12.5V14H65.7363V12.5H64.7363ZM54.7363 7H59.2363V6H54.7363V7ZM59.7363 6.5V5H58.7363V6.5H59.7363ZM59.7363 5V3.5H58.7363V5H59.7363ZM59.7363 3.5V2H58.7363V3.5H59.7363ZM59.2363 1.5H54.7363V2.5H59.2363V1.5ZM54.2363 2V3.5H55.2363V2H54.2363ZM54.2363 3.5V6.5H55.2363V3.5H54.2363ZM89.2363 0.5V0H88.7363V0.5H89.2363ZM90.7363 0.5H91.2363V0H90.7363V0.5ZM90.7363 15.5V16H91.2363V15.5H90.7363ZM89.2363 15.5H88.7363V16H89.2363V15.5ZM72.7363 0.5V0H72.2363V0.5H72.7363ZM81.7363 0.5H82.2363V0H81.7363V0.5ZM81.7363 11V11.5H82.2363V11H81.7363ZM72.7363 11H72.2363V11.5H72.7363V11ZM74.2363 9.5H73.7363V10H74.2363V9.5ZM80.2363 9.5V10H80.7363V9.5H80.2363ZM80.2363 2H80.7363V1.5H80.2363V2ZM74.2363 2V1.5H73.7363V2H74.2363ZM89.2363 1H90.7363V0H89.2363V1ZM90.2363 0.5V15.5H91.2363V0.5H90.2363ZM90.7363 15H89.2363V16H90.7363V15ZM89.7363 15.5V0.5H88.7363V15.5H89.7363ZM72.7363 1H81.7363V0H72.7363V1ZM81.2363 0.5V11H82.2363V0.5H81.2363ZM81.7363 10.5H72.7363V11.5H81.7363V10.5ZM73.2363 11V0.5H72.2363V11H73.2363ZM74.2363 10H80.2363V9H74.2363V10ZM80.7363 9.5V8H79.7363V9.5H80.7363ZM80.7363 8V6.5H79.7363V8H80.7363ZM80.7363 6.5V5H79.7363V6.5H80.7363ZM80.7363 5V3.5H79.7363V5H80.7363ZM80.7363 3.5V2H79.7363V3.5H80.7363ZM80.2363 1.5H74.2363V2.5H80.2363V1.5ZM73.7363 2V3.5H74.7363V2H73.7363ZM73.7363 3.5V5H74.7363V3.5H73.7363ZM73.7363 5V6.5H74.7363V5H73.7363ZM73.7363 6.5V9.5H74.7363V6.5H73.7363Z" fill="#FB37A3" mask="url(#path-1-outside-1_61_587)"/>
<defs>
<linearGradient id="paint0_linear_61_587" x1="45.7363" y1="-2" x2="45.7363" y2="24" gradientUnits="userSpaceOnUse">
<stop stop-color="#EECDA3"/>
<stop offset="1" stop-color="#EF629F"/>
</linearGradient>
</defs>
</svg>
