<svg width="15" height="15" viewBox="0 0 15 15" fill="none" xmlns="http://www.w3.org/2000/svg">
<path d="M9.73513 8.59494L9.588 7.76649L13.1785 4.17524L10.8986 1.89462L7.30658 5.48507L6.47893 5.33794C5.7443 5.20623 4.98755 5.28069 4.29267 5.55304L9.52083 10.7804C9.79276 10.0857 9.86694 9.32923 9.73513 8.59494ZM6.33659 9.87759L1.77375 14.4388C1.62254 14.59 1.41745 14.675 1.2036 14.675C0.989749 14.675 0.784658 14.59 0.633444 14.4388C0.482229 14.2876 0.397278 14.0825 0.397278 13.8687C0.397278 13.6548 0.482229 13.4497 0.633444 13.2985L5.19548 8.73728L1.77375 5.31555C2.41685 4.67146 3.20632 4.19263 4.0747 3.91997C4.94308 3.64731 5.86456 3.58893 6.76041 3.74982L9.75672 0.753506C9.9065 0.60367 10.0843 0.48481 10.2801 0.403716C10.4758 0.322623 10.6856 0.280884 10.8974 0.280884C11.1093 0.280884 11.3191 0.322623 11.5148 0.403716C11.7105 0.48481 11.8884 0.60367 12.0381 0.753506L14.3188 3.03493C14.6211 3.33739 14.791 3.74756 14.791 4.17524C14.791 4.60291 14.6211 5.01308 14.3188 5.31555L11.3225 8.31186C11.4833 9.20771 11.425 10.1292 11.1523 10.9976C10.8796 11.8659 10.4008 12.6554 9.75672 13.2985L6.33659 9.87759Z" fill="black"/>
</svg>
