<svg width="12" height="12" viewBox="0 0 12 12" fill="none" xmlns="http://www.w3.org/2000/svg">
<path d="M6.7945 4.80319V0.804905C6.7945 0.592823 6.71025 0.389428 6.56029 0.239463C6.41032 0.0894984 6.20692 0.00524902 5.99484 0.00524902C5.78276 0.00524902 5.57936 0.0894984 5.4294 0.239463C5.27944 0.389428 5.19519 0.592823 5.19519 0.804905V4.80319H1.1969C0.984822 4.80319 0.781426 4.88744 0.631461 5.0374C0.481497 5.18737 0.397247 5.39076 0.397247 5.60284C0.397247 5.81493 0.481497 6.01832 0.631461 6.16829C0.781426 6.31825 0.984822 6.4025 1.1969 6.4025H5.19519V10.4008C5.19519 10.6129 5.27944 10.8163 5.4294 10.9662C5.57936 11.1162 5.78276 11.2004 5.99484 11.2004C6.20692 11.2004 6.41032 11.1162 6.56029 10.9662C6.71025 10.8163 6.7945 10.6129 6.7945 10.4008V6.4025H10.7928C11.0049 6.4025 11.2083 6.31825 11.3582 6.16829C11.5082 6.01832 11.5924 5.81493 11.5924 5.60284C11.5924 5.39076 11.5082 5.18737 11.3582 5.0374C11.2083 4.88744 11.0049 4.80319 10.7928 4.80319H6.7945Z" fill="#676767"/>
</svg>
