<svg width="20" height="20" viewBox="0 0 20 20" fill="none" xmlns="http://www.w3.org/2000/svg">
<path d="M8.91704 13.6024C9.55383 13.6024 10.1844 13.4769 10.7727 13.2333C11.361 12.9896 11.8956 12.6324 12.3459 12.1821C12.7962 11.7318 13.1534 11.1972 13.3971 10.6089C13.6407 10.0206 13.7662 9.39003 13.7662 8.75323C13.7662 8.11643 13.6407 7.48587 13.3971 6.89755C13.1534 6.30922 12.7962 5.77466 12.3459 5.32437C11.8956 4.87409 11.361 4.5169 10.7727 4.27321C10.1844 4.02952 9.55383 3.90409 8.91704 3.90409C7.63096 3.90409 6.39757 4.41498 5.48818 5.32437C4.57879 6.23376 4.0679 7.46716 4.0679 8.75323C4.0679 10.0393 4.57879 11.2727 5.48818 12.1821C6.39757 13.0915 7.63096 13.6024 8.91704 13.6024ZM14.0248 12.7182L16.9181 15.6115C16.9952 15.6861 17.0568 15.7754 17.099 15.874C17.1413 15.9726 17.1635 16.0787 17.1644 16.186C17.1653 16.2933 17.1447 16.3997 17.104 16.499C17.0633 16.5983 17.0032 16.6885 16.9273 16.7643C16.8514 16.8402 16.7611 16.9001 16.6617 16.9407C16.5624 16.9812 16.456 17.0016 16.3486 17.0006C16.2413 16.9996 16.1353 16.9772 16.0367 16.9348C15.9382 16.8924 15.849 16.8307 15.7745 16.7535L12.8812 13.8602C11.582 14.8687 9.94731 15.3442 8.30989 15.1898C6.67246 15.0355 5.1554 14.2629 4.06753 13.0294C2.97967 11.7959 2.40277 10.1942 2.45429 8.55031C2.5058 6.90644 3.18185 5.34398 4.34482 4.18102C5.50779 3.01805 7.07024 2.342 8.71412 2.29048C10.358 2.23897 11.9597 2.81586 13.1932 3.90373C14.4267 4.9916 15.1993 6.50866 15.3536 8.14608C15.508 9.78351 15.0325 11.4182 14.024 12.7174L14.0248 12.7182Z" fill="#697077"/>
</svg>
