<svg width="24" height="25" viewBox="0 0 24 25" fill="none" xmlns="http://www.w3.org/2000/svg">
<path d="M15.75 6.8C15.75 7.79456 15.3549 8.74839 14.6516 9.45165C13.9484 10.1549 12.9945 10.55 12 10.55C11.0054 10.55 10.0516 10.1549 9.34833 9.45165C8.64506 8.74839 8.24998 7.79456 8.24998 6.8C8.24998 5.80544 8.64506 4.85161 9.34833 4.14835C10.0516 3.44509 11.0054 3.05 12 3.05C12.9945 3.05 13.9484 3.44509 14.6516 4.14835C15.3549 4.85161 15.75 5.80544 15.75 6.8ZM4.50098 20.918C4.53311 18.9504 5.33731 17.0742 6.74015 15.694C8.14299 14.3139 10.0321 13.5405 12 13.5405C13.9679 13.5405 15.857 14.3139 17.2598 15.694C18.6626 17.0742 19.4668 18.9504 19.499 20.918C17.1464 21.9968 14.5881 22.5535 12 22.55C9.32398 22.55 6.78398 21.966 4.50098 20.918Z" stroke="#7E7E7E" stroke-width="1.5" stroke-linecap="round" stroke-linejoin="round"/>
</svg>
